<?xml version="1.0" encoding="UTF-8" standalone="no"?>
<!DOCTYPE svg PUBLIC "-//W3C//DTD SVG 1.1//EN"
 "http://www.w3.org/Graphics/SVG/1.1/DTD/svg11.dtd">
<!-- Generated by graphviz version 2.50.0 (0)
 -->
<!-- Title: pastafarianism Pages: 1 -->
<svg width="558pt" height="116pt"
 viewBox="0.00 0.00 557.77 116.00" xmlns="http://www.w3.org/2000/svg" xmlns:xlink="http://www.w3.org/1999/xlink">
<g id="graph0" class="graph" transform="scale(1 1) rotate(0) translate(4 112)">
<title>pastafarianism</title>
<polygon fill="white" stroke="transparent" points="-4,4 -4,-112 553.77,-112 553.77,4 -4,4"/>
<!-- Selector -->
<g id="node1" class="node">
<title>Selector</title>
<polygon fill="cyan" stroke="black" points="287.24,-82.54 287.24,-97.46 270.7,-108 247.3,-108 230.76,-97.46 230.76,-82.54 247.3,-72 270.7,-72 287.24,-82.54"/>
<text text-anchor="middle" x="259" y="-87.8" font-family="Times New Roman,serif" font-size="9.00">Selector</text>
</g>
<!-- disperse -->
<g id="node2" class="node">
<title>disperse</title>
<ellipse fill="gray" stroke="black" cx="27" cy="-18" rx="27" ry="18"/>
<text text-anchor="middle" x="27" y="-15.8" font-family="Times New Roman,serif" font-size="9.00">disperse</text>
</g>
<!-- Selector&#45;&gt;disperse -->
<g id="edge1" class="edge">
<title>Selector&#45;&gt;disperse</title>
<path fill="none" stroke="black" d="M230.6,-82.98C192.03,-74.44 121.22,-57.43 63,-36 61.15,-35.32 59.27,-34.58 57.38,-33.8"/>
<polygon fill="black" stroke="black" points="58.62,-30.52 48.05,-29.7 55.8,-36.93 58.62,-30.52"/>
</g>
<!-- MedianX &lt; &#45;30 -->
<g id="node3" class="node">
<title>MedianX &lt; &#45;30</title>
<ellipse fill="gray" stroke="black" cx="114" cy="-18" rx="41.64" ry="18"/>
<text text-anchor="middle" x="114" y="-15.8" font-family="Times New Roman,serif" font-size="9.00">MedianX &lt; &#45;30</text>
</g>
<!-- Selector&#45;&gt;MedianX &lt; &#45;30 -->
<g id="edge2" class="edge">
<title>Selector&#45;&gt;MedianX &lt; &#45;30</title>
<path fill="none" stroke="black" d="M236.98,-78.37C213.87,-67.22 177.19,-49.51 149.9,-36.33"/>
<polygon fill="black" stroke="black" points="151.2,-33.07 140.67,-31.88 148.16,-39.38 151.2,-33.07"/>
</g>
<!-- MedianY &gt; &#45;16 -->
<g id="node4" class="node">
<title>MedianY &gt; &#45;16</title>
<ellipse fill="gray" stroke="black" cx="215" cy="-18" rx="40.98" ry="18"/>
<text text-anchor="middle" x="215" y="-15.8" font-family="Times New Roman,serif" font-size="9.00">MedianY &gt; &#45;16</text>
</g>
<!-- Selector&#45;&gt;MedianY &gt; &#45;16 -->
<g id="edge3" class="edge">
<title>Selector&#45;&gt;MedianY &gt; &#45;16</title>
<path fill="none" stroke="black" d="M248.12,-71.7C242.93,-63.44 236.62,-53.39 230.9,-44.3"/>
<polygon fill="black" stroke="black" points="233.73,-42.23 225.45,-35.62 227.81,-45.95 233.73,-42.23"/>
</g>
<!-- disperse* -->
<g id="node5" class="node">
<title>disperse*</title>
<ellipse fill="gray" stroke="black" cx="303" cy="-18" rx="28.74" ry="18"/>
<text text-anchor="middle" x="303" y="-15.8" font-family="Times New Roman,serif" font-size="9.00">disperse*</text>
</g>
<!-- Selector&#45;&gt;disperse* -->
<g id="edge4" class="edge">
<title>Selector&#45;&gt;disperse*</title>
<path fill="none" stroke="black" d="M269.88,-71.7C275.2,-63.23 281.7,-52.89 287.53,-43.61"/>
<polygon fill="black" stroke="black" points="290.49,-45.47 292.85,-35.14 284.57,-41.75 290.49,-45.47"/>
</g>
<!-- MedianX &lt; &#45;30* -->
<g id="node6" class="node">
<title>MedianX &lt; &#45;30*</title>
<ellipse fill="gray" stroke="black" cx="394" cy="-18" rx="44.41" ry="18"/>
<text text-anchor="middle" x="394" y="-15.8" font-family="Times New Roman,serif" font-size="9.00">MedianX &lt; &#45;30*</text>
</g>
<!-- Selector&#45;&gt;MedianX &lt; &#45;30* -->
<g id="edge5" class="edge">
<title>Selector&#45;&gt;MedianX &lt; &#45;30*</title>
<path fill="none" stroke="black" d="M280.39,-77.91C301.36,-67.04 333.69,-50.27 358.51,-37.4"/>
<polygon fill="black" stroke="black" points="360.34,-40.39 367.61,-32.68 357.12,-34.18 360.34,-40.39"/>
</g>
<!-- MedianX &lt; &#45;30** -->
<g id="node7" class="node">
<title>MedianX &lt; &#45;30**</title>
<ellipse fill="gray" stroke="black" cx="503" cy="-18" rx="46.53" ry="18"/>
<text text-anchor="middle" x="503" y="-15.8" font-family="Times New Roman,serif" font-size="9.00">MedianX &lt; &#45;30**</text>
</g>
<!-- Selector&#45;&gt;MedianX &lt; &#45;30** -->
<g id="edge6" class="edge">
<title>Selector&#45;&gt;MedianX &lt; &#45;30**</title>
<path fill="none" stroke="black" d="M285.82,-81.62C322.34,-71.53 389.72,-52.77 447,-36 450.52,-34.97 454.17,-33.89 457.83,-32.8"/>
<polygon fill="black" stroke="black" points="458.91,-36.13 467.48,-29.9 456.9,-29.42 458.91,-36.13"/>
</g>
</g>
</svg>
